<svg version="1.1" xmlns="http://www.w3.org/2000/svg" width="512" height="512">
<path d="M0 0 C2.39795082 -0.00435307 4.79590026 -0.00953819 7.19384766 -0.01548767 C13.00577015 -0.0274439 18.81763882 -0.0300367 24.62957212 -0.02768741 C29.35976562 -0.02589635 34.08994518 -0.02767067 38.82013702 -0.03191185 C39.49620623 -0.03250704 40.17227544 -0.03310223 40.86883159 -0.03371545 C42.24277622 -0.03492735 43.61672084 -0.03614148 44.99066547 -0.03735783 C57.84542033 -0.04820798 70.70014889 -0.04608305 83.55490521 -0.03997298 C95.27937285 -0.03480774 107.00375731 -0.0460534 118.72820851 -0.0650712 C130.80515252 -0.08450855 142.8820573 -0.0926952 154.95901704 -0.08894795 C161.72392405 -0.08704461 168.48876034 -0.08943805 175.25365448 -0.10366249 C181.61987306 -0.11630448 187.98592608 -0.11423672 194.35214233 -0.1012516 C196.67677112 -0.0989 199.00141178 -0.10156914 201.32602692 -0.10987473 C217.85116898 -0.16461901 233.28383754 1.03282944 249.14941406 5.9621582 C249.97586426 6.21634521 250.80231445 6.47053223 251.65380859 6.73242188 C265.9592668 11.28688499 278.97779797 17.59167076 291.21191406 26.2746582 C292.77425781 27.36133789 292.77425781 27.36133789 294.36816406 28.4699707 C309.99200177 39.87846606 322.90904133 53.94142156 333.21191406 70.2746582 C333.6020166 70.88937988 333.99211914 71.50410156 334.39404297 72.13745117 C341.81121862 84.00298969 346.55371729 96.54405985 350.46191406 109.8996582 C350.70828613 110.73376221 350.9546582 111.56786621 351.20849609 112.42724609 C355.39479791 127.30785659 355.50502072 141.71911655 355.48657227 157.06274414 C355.49092533 159.46069497 355.49611046 161.8586444 355.50205994 164.2565918 C355.51401617 170.06851429 355.51660896 175.88038296 355.51425967 181.69231626 C355.51246862 186.42250976 355.51424293 191.15268932 355.51848412 195.88288116 C355.5190793 196.55895037 355.51967449 197.23501958 355.52028772 197.93157573 C355.52149961 199.30552036 355.52271375 200.67946498 355.5239301 202.05340961 C355.53478024 214.90816447 355.53265532 227.76289303 355.52654525 240.61764935 C355.52138001 252.34211699 355.53262567 264.06650145 355.55164347 275.79095265 C355.57108082 287.86789666 355.57926747 299.94480144 355.57552022 312.02176118 C355.57361687 318.78666819 355.57601032 325.55150448 355.59023476 332.31639862 C355.60287674 338.6826172 355.60080898 345.04867023 355.58782387 351.41488647 C355.58547226 353.73951526 355.5881414 356.06415592 355.59644699 358.38877106 C355.65119128 374.91391312 354.45374283 390.34658168 349.52441406 406.2121582 C349.27022705 407.0386084 349.01604004 407.86505859 348.75415039 408.71655273 C344.19968728 423.02201095 337.8949015 436.04054211 329.21191406 448.2746582 C328.48746094 449.3162207 327.76300781 450.3577832 327.01660156 451.4309082 C315.6081062 467.05474591 301.5451507 479.97178547 285.21191406 490.2746582 C284.59719238 490.66476074 283.9824707 491.05486328 283.34912109 491.45678711 C271.48358257 498.87396276 258.94251242 503.61646143 245.58691406 507.5246582 C244.75281006 507.77103027 243.91870605 508.01740234 243.05932617 508.27124023 C228.17871568 512.45754205 213.76745571 512.56776487 198.42382812 512.54931641 C196.0258773 512.55366947 193.62792786 512.5588546 191.22998047 512.56480408 C185.41805797 512.57676031 179.6061893 512.5793531 173.794256 512.57700381 C169.0640625 512.57521276 164.33388294 512.57698708 159.6036911 512.58122826 C158.58958729 512.58212104 158.58958729 512.58212104 157.55499654 512.58303186 C156.18105191 512.58424375 154.80710728 512.58545789 153.43316266 512.58667424 C140.5784078 512.59752438 127.72367924 512.59539946 114.86892292 512.58928939 C103.14445527 512.58412415 91.42007081 512.59536981 79.69561961 512.61438761 C67.6186756 512.63382496 55.54177082 512.64201161 43.46481109 512.63826436 C36.69990407 512.63636101 29.93506779 512.63875446 23.17017365 512.6529789 C16.80395507 512.66562088 10.43790204 512.66355312 4.07168579 512.65056801 C1.74705701 512.6482164 -0.57758366 512.65088555 -2.90219879 512.65919113 C-19.42734086 512.71393542 -34.86000941 511.51648697 -50.72558594 506.5871582 C-51.55203613 506.33297119 -52.37848633 506.07878418 -53.22998047 505.81689453 C-67.53543868 501.26243142 -80.55396985 494.95764564 -92.78808594 486.2746582 C-93.82964844 485.55020508 -94.87121094 484.82575195 -95.94433594 484.0793457 C-111.56817365 472.67085034 -124.4852132 458.60789484 -134.78808594 442.2746582 C-135.17818848 441.65993652 -135.56829102 441.04521484 -135.97021484 440.41186523 C-143.38739049 428.54632671 -148.12988916 416.00525656 -152.03808594 402.6496582 C-152.28445801 401.8155542 -152.53083008 400.9814502 -152.78466797 400.12207031 C-156.97096978 385.24145982 -157.0811926 370.83019985 -157.06274414 355.48657227 C-157.06709721 353.08862144 -157.07228233 350.690672 -157.07823181 348.29272461 C-157.09018804 342.48080212 -157.09278084 336.66893344 -157.09043155 330.85700014 C-157.08864049 326.12680664 -157.09041481 321.39662708 -157.09465599 316.66643524 C-157.09525118 315.99036603 -157.09584637 315.31429683 -157.09645959 314.61774068 C-157.09767149 313.24379605 -157.09888562 311.86985142 -157.10010197 310.4959068 C-157.11095212 297.64115194 -157.10882719 284.78642338 -157.10271712 271.93166706 C-157.09755188 260.20719941 -157.10879754 248.48281495 -157.12781534 236.75836375 C-157.14725269 224.68141974 -157.15543934 212.60451496 -157.15169209 200.52755523 C-157.14978875 193.76264821 -157.15218219 186.99781193 -157.16640663 180.23291779 C-157.17904862 173.86669921 -157.17698086 167.50064618 -157.16399574 161.13442993 C-157.16164414 158.80980115 -157.16431328 156.48516048 -157.17261887 154.16054535 C-157.22736315 137.63540328 -156.0299147 122.20273473 -151.10058594 106.3371582 C-150.71930542 105.09748291 -150.71930542 105.09748291 -150.33032227 103.83276367 C-145.77585916 89.52730546 -139.47107338 76.50877429 -130.78808594 64.2746582 C-130.06363281 63.2330957 -129.33917969 62.1915332 -128.59277344 61.1184082 C-117.18427808 45.49457049 -103.12132258 32.57753094 -86.78808594 22.2746582 C-86.17336426 21.88455566 -85.55864258 21.49445312 -84.92529297 21.0925293 C-73.05975445 13.67535365 -60.51868429 8.93285498 -47.16308594 5.0246582 C-46.32898193 4.77828613 -45.49487793 4.53191406 -44.63549805 4.27807617 C-29.75488755 0.09177436 -15.34362759 -0.01844846 0 0 Z M-17.57772827 51.15312195 C-18.37460104 51.22908216 -19.1714738 51.30504238 -19.99249423 51.38330442 C-42.01415079 53.75480317 -66.31575715 65.18739685 -80.56933594 82.5090332 C-81.48377451 83.67452974 -82.38984167 84.84663557 -83.28808594 86.0246582 C-83.76729492 86.64880615 -84.24650391 87.2729541 -84.74023438 87.91601562 C-85.68182464 89.15053443 -86.61917792 90.38829922 -87.55175781 91.62963867 C-88.55094528 92.95912626 -89.56560264 94.27697865 -90.58496094 95.59106445 C-106.5057752 117.46078512 -106.94092266 145.15888573 -106.93334961 171.00756836 C-106.93634769 173.06582703 -106.9397517 175.12408514 -106.94352722 177.18234253 C-106.95230578 182.73640128 -106.95470274 188.29044459 -106.95534301 193.8445096 C-106.95605705 197.32525954 -106.95819806 200.80600563 -106.96084023 204.28675461 C-106.97007362 216.46062211 -106.97417767 228.63447872 -106.97338867 240.80834961 C-106.97278856 252.1065243 -106.98333257 263.40465115 -106.99913234 274.70281374 C-107.01226348 284.44430692 -107.01757023 294.18578456 -107.01693326 303.92728651 C-107.01667989 309.72701986 -107.0194412 315.52671065 -107.03011131 321.32643509 C-107.03988658 326.7881518 -107.03980779 332.24978605 -107.03259468 337.71150589 C-107.03156042 339.69946414 -107.03384148 341.68742778 -107.03995514 343.67537689 C-107.0682309 353.51857165 -106.85738066 363.2613764 -105.90962219 373.06430054 C-105.83366198 373.8611733 -105.75770176 374.65804607 -105.67943972 375.47906649 C-103.30794097 397.50072305 -91.87534729 421.80232942 -74.55371094 436.0559082 C-73.3882144 436.97034678 -72.21610857 437.87641394 -71.03808594 438.7746582 C-70.41393799 439.25386719 -69.78979004 439.73307617 -69.14672852 440.22680664 C-67.91220971 441.16839691 -66.67444493 442.10575018 -65.43310547 443.03833008 C-64.10361788 444.03751754 -62.78576549 445.05217491 -61.47167969 446.0715332 C-39.60195902 461.99234746 -11.90385841 462.42749493 13.94482422 462.41992188 C16.00308289 462.42291996 18.061341 462.42632396 20.11959839 462.43009949 C25.67365714 462.43887805 31.22770044 462.44127501 36.78176546 462.44191527 C40.2625154 462.44262932 43.74326149 462.44477033 47.22401047 462.44741249 C59.39787797 462.45664588 71.57173458 462.46074993 83.74560547 462.45996094 C95.04378016 462.45936082 106.34190701 462.46990483 117.6400696 462.4857046 C127.38156278 462.49883575 137.12304042 462.5041425 146.86454237 462.50350553 C152.66427572 462.50325216 158.46396651 462.50601347 164.26369095 462.51668358 C169.72540766 462.52645885 175.18704191 462.52638005 180.64876175 462.51916695 C182.63671999 462.51813268 184.62468364 462.52041375 186.61263275 462.5265274 C196.45582751 462.55480316 206.19863226 462.34395292 216.0015564 461.39619446 C216.79842916 461.32023424 217.59530193 461.24427403 218.41632235 461.16601199 C240.43797891 458.79451323 264.73958528 447.36191955 278.99316406 430.0402832 C279.90760264 428.87478667 280.8136698 427.70268084 281.71191406 426.5246582 C282.19112305 425.90051025 282.67033203 425.2763623 283.1640625 424.63330078 C284.10565277 423.39878198 285.04300604 422.16101719 285.97558594 420.91967773 C286.9747734 419.59019015 287.98943077 418.27233775 289.00878906 416.95825195 C304.92960332 395.08853129 305.36475079 367.39043068 305.35717773 341.54174805 C305.36017582 339.48348938 305.36357982 337.42523127 305.36735535 335.36697388 C305.37613391 329.81291513 305.37853087 324.25887182 305.37917113 318.7048068 C305.37988518 315.22405687 305.38202619 311.74331077 305.38466835 308.2625618 C305.39390174 296.08869429 305.39800579 283.91483769 305.3972168 271.7409668 C305.39661668 260.4427921 305.40716069 249.14466526 305.42296046 237.84650266 C305.43609161 228.10500949 305.44139836 218.36353184 305.44076139 208.6220299 C305.44050802 202.82229654 305.44326933 197.02260576 305.45393944 191.22288132 C305.46371471 185.76116461 305.46363591 180.29953036 305.45642281 174.83781052 C305.45538854 172.84985227 305.45766961 170.86188863 305.46378326 168.87393951 C305.49205902 159.03074476 305.28120878 149.28794001 304.33345032 139.48501587 C304.2574901 138.6881431 304.18152989 137.89127034 304.10326785 137.07024992 C301.73176909 115.04859336 290.29917541 90.74698699 272.97753906 76.4934082 C271.81204253 75.57896963 270.63993669 74.67290247 269.46191406 73.7746582 C268.83776611 73.29544922 268.21361816 72.81624023 267.57055664 72.32250977 C266.33603784 71.3809195 265.09827305 70.44356622 263.85693359 69.51098633 C262.52744601 68.51179886 261.20959361 67.4971415 259.89550781 66.4777832 C238.02578715 50.55696894 210.32768654 50.12182148 184.47900391 50.12939453 C182.42074524 50.12639645 180.36248713 50.12299244 178.30422974 50.11921692 C172.75017099 50.11043836 167.19612768 50.1080414 161.64206266 50.10740113 C158.16131273 50.10668709 154.68056663 50.10454608 151.19981766 50.10190392 C139.02595015 50.09267052 126.85209355 50.08856647 114.67822266 50.08935547 C103.38004796 50.08995558 92.08192112 50.07941157 80.78375852 50.06361181 C71.04226535 50.05048066 61.3007877 50.04517391 51.55928576 50.04581088 C45.7595524 50.04606425 39.95986162 50.04330294 34.16013718 50.03263283 C28.69842047 50.02285756 23.23678622 50.02293635 17.77506638 50.03014946 C15.78710813 50.03118372 13.79914449 50.02890266 11.81119537 50.022789 C1.96800062 49.99451324 -7.77480413 50.20536348 -17.57772827 51.15312195 Z " fill="#03AA6C" transform="translate(156.7880859375,-0.274658203125)"/>
<path d="M0 0 C17.55171506 -0.06798666 35.10331596 -0.12313766 52.65512657 -0.15543652 C60.80659102 -0.1708388 68.95796723 -0.19179961 77.109375 -0.22631836 C84.22254808 -0.25642588 91.33565719 -0.27562309 98.44889224 -0.28226548 C102.20768136 -0.286142 105.96628763 -0.29510968 109.72501755 -0.31719017 C139.89587836 -0.48735856 172.43093132 1.63593775 196 23 C196.60972656 23.54140625 197.21945312 24.0828125 197.84765625 24.640625 C209.43437237 35.53977775 218.19200418 51.60073592 219.16113281 67.67211914 C219.207044 70.80235469 219.23527669 73.93195598 219.25 77.0625 C219.2809375 78.66641602 219.2809375 78.66641602 219.3125 80.30273438 C219.36501858 91.16751658 217.05005334 100.86521838 212.3125 110.625 C211.96219727 111.35227295 211.61189453 112.0795459 211.25097656 112.82885742 C208.22140105 118.91309669 204.67456191 124.04432183 200 129 C199.52981445 129.49902832 199.05962891 129.99805664 198.57519531 130.51220703 C193.3886228 135.97080258 188.35056905 140.86646095 182 145 C185.31797691 154.10754169 188.8250732 163.12187114 192.5234375 172.08203125 C192.9175885 173.03737762 193.3117395 173.992724 193.71783447 174.97702026 C195.35434749 178.93757029 196.9943141 182.89666294 198.63916016 186.85375977 C199.85516343 189.78214728 201.06472189 192.71312973 202.2734375 195.64453125 C202.6483432 196.54130081 203.0232489 197.43807037 203.40951538 198.36201477 C203.75052277 199.1910582 204.09153015 200.02010162 204.44287109 200.87426758 C204.74454193 201.60100174 205.04621277 202.3277359 205.35702515 203.07649231 C206 205 206 205 206 208 C207.22976563 208.26554688 208.45953125 208.53109375 209.7265625 208.8046875 C211.35941245 209.16128691 212.99222287 209.51806733 214.625 209.875 C215.43324219 210.04902344 216.24148438 210.22304688 217.07421875 210.40234375 C217.86699219 210.57636719 218.65976562 210.75039063 219.4765625 210.9296875 C220.5605835 211.16534424 220.5605835 211.16534424 221.66650391 211.40576172 C224.48584228 212.12372255 227.23997773 213.07999258 230 214 C230 225.88 230 237.76 230 250 C205.91 250 181.82 250 157 250 C146.6073818 220.35368912 136.28476477 190.68387313 126 161 C112.8 160.67 99.6 160.34 86 160 C86 176.17 86 192.34 86 209 C89.3 209.33 92.6 209.66 96 210 C101.28 211.32 106.56 212.64 112 214 C112 225.88 112 237.76 112 250 C75.04 250 38.08 250 0 250 C0 238.12 0 226.24 0 214 C16 210 16 210 25 209 C24.67 153.89 24.34 98.78 24 42 C16.08 40.35 8.16 38.7 0 37 C0 24.79 0 12.58 0 0 Z M86 47 C86 68.78 86 90.56 86 113 C95.77625 113.061875 95.77625 113.061875 105.75 113.125 C107.78124023 113.14320801 109.81248047 113.16141602 111.90527344 113.18017578 C126.72269424 113.25831136 140.95835291 113.32170954 152.4609375 102.73828125 C158.57070344 95.83765728 159.2623598 86.8910821 159 78 C157.4816536 68.04382018 154.54282618 59.82479743 146.21484375 53.68359375 C137.94598128 48.17649847 130.12358709 46.54376282 120.27734375 46.70703125 C118.96401062 46.71156311 118.96401062 46.71156311 117.62414551 46.71618652 C114.39514145 46.73172471 111.1663072 46.773607 107.9375 46.8125 C97.0784375 46.9053125 97.0784375 46.9053125 86 47 Z " fill="#03A96C" transform="translate(141,131)"/>
</svg>
